<svg width="11" height="11" viewBox="0 0 11 11" fill="none" xmlns="http://www.w3.org/2000/svg">
<path d="M7.04694 6.91561C7.24802 6.98263 7.46536 6.87396 7.53238 6.67289C7.59941 6.47181 7.49074 6.25448 7.28966 6.18745L7.1683 6.55153L7.04694 6.91561ZM5.31798 5.93475H4.93421C4.93421 6.09994 5.03991 6.24659 5.19662 6.29883L5.31798 5.93475ZM5.70175 3.35574C5.70175 3.14379 5.52993 2.97197 5.31798 2.97197C5.10603 2.97197 4.93421 3.14379 4.93421 3.35574H5.31798H5.70175ZM7.1683 6.55153L7.28966 6.18745L5.43934 5.57068L5.31798 5.93475L5.19662 6.29883L7.04694 6.91561L7.1683 6.55153ZM5.31798 5.93475H5.70175V3.35574H5.31798H4.93421V5.93475H5.31798ZM10.2522 5.31798H9.86841C9.86841 7.83111 7.83111 9.86841 5.31798 9.86841V10.2522V10.636C8.25501 10.636 10.636 8.25501 10.636 5.31798H10.2522ZM5.31798 10.2522V9.86841C2.80484 9.86841 0.767545 7.83111 0.767545 5.31798H0.383774H2.41399e-06C2.41399e-06 8.25501 2.38094 10.636 5.31798 10.636V10.2522ZM0.383774 5.31798H0.767545C0.767545 2.80484 2.80484 0.767545 5.31798 0.767545V0.383774V2.41399e-06C2.38094 2.41399e-06 2.41399e-06 2.38094 2.41399e-06 5.31798H0.383774ZM5.31798 0.383774V0.767545C7.83111 0.767545 9.86841 2.80484 9.86841 5.31798H10.2522H10.636C10.636 2.38094 8.25501 2.41399e-06 5.31798 2.41399e-06V0.383774Z" fill="white"/>
</svg>
