<svg width="28" height="24" viewBox="0 0 28 24" fill="none" xmlns="http://www.w3.org/2000/svg">
<path fill-rule="evenodd" clip-rule="evenodd" d="M2.88381 2.9636C4.08059 1.76718 5.70355 1.09507 7.39579 1.09507C9.08803 1.09507 10.711 1.76718 11.9078 2.9636L13.7777 4.83189L15.6475 2.9636C16.2362 2.35406 16.9405 1.86788 17.7191 1.53341C18.4977 1.19895 19.3351 1.02289 20.1825 1.01553C21.0299 1.00817 21.8702 1.16964 22.6545 1.49052C23.4388 1.81141 24.1514 2.28528 24.7506 2.88449C25.3498 3.4837 25.8237 4.19625 26.1446 4.98056C26.4655 5.76487 26.6269 6.60523 26.6196 7.45261C26.6122 8.29999 26.4361 9.13742 26.1017 9.91603C25.7672 10.6946 25.281 11.3988 24.6715 11.9876L13.7777 22.883L2.88381 11.9876C1.6874 10.7908 1.01529 9.16782 1.01529 7.47558C1.01529 5.78333 1.6874 4.16037 2.88381 2.9636Z" stroke="currentColor" stroke-width="2" stroke-linejoin="round"/>
</svg>
