<svg width="16" height="16" viewBox="0 0 16 16" fill="none" xmlns="http://www.w3.org/2000/svg">
<g clip-path="url(#clip0_14_53)">
<path d="M8.00333 16.0067C12.4234 16.0067 16.0067 12.4234 16.0067 8.00333C16.0067 3.58321 12.4234 0 8.00333 0C3.58321 0 0 3.58321 0 8.00333C0 12.4234 3.58321 16.0067 8.00333 16.0067Z" fill="white"/>
<path fill-rule="evenodd" clip-rule="evenodd" d="M3.61847 7.91679C5.95083 6.90388 7.50351 6.23083 8.28319 5.90429C10.5023 4.97801 10.9687 4.81808 11.2686 4.81142C11.3352 4.81142 11.4819 4.82474 11.5818 4.90471C11.6618 4.97135 11.6818 5.05798 11.6951 5.12462C11.7084 5.19126 11.7218 5.3312 11.7084 5.43782C11.5885 6.70396 11.0687 9.77601 10.8021 11.1888C10.6889 11.7885 10.4689 11.9884 10.2557 12.0084C9.78923 12.0484 9.43604 11.7019 8.98956 11.4087C8.28319 10.9489 7.89002 10.6623 7.20364 10.2092C6.41063 9.68938 6.92375 9.40284 7.3769 8.93637C7.49685 8.81642 9.54266 6.95053 9.58265 6.78393C9.58931 6.76394 9.58931 6.68397 9.54266 6.64399C9.49602 6.604 9.42938 6.61733 9.37607 6.63066C9.30276 6.64399 8.18323 7.39034 6.00414 8.86306C5.68427 9.08297 5.39772 9.18959 5.13783 9.18293C4.85128 9.17627 4.30485 9.02299 3.89168 8.88972C3.39189 8.72978 2.99206 8.64315 3.02538 8.36327C3.04537 8.21666 3.24529 8.07006 3.61847 7.91679Z" fill="#061023"/>
</g>
<defs>
<clipPath id="clip0_14_53">
<rect width="16" height="16" fill="white"/>
</clipPath>
</defs>
</svg>
