<svg fill="currentColor" width="15" height="13" viewBox="-2 -2 18 18" fill="none" xmlns="http://www.w3.org/2000/svg">
<path id="unlikePath" fill-rule="evenodd" clip-rule="evenodd" d="M4.26 0C2.9822 0 1.89504 0.459545 1.1329 1.29612C0.378044 2.1247 0 3.25839 0 4.51348C0 6.69309 1.10945 8.43092 2.51909 9.78112C3.92375 11.1265 5.68921 12.1495 7.15248 12.9146C7.36916 13.0279 7.62746 13.0285 7.84463 12.9161C9.30786 12.1591 11.0728 11.1285 12.4784 9.77651C13.8872 8.42156 15 6.67881 15 4.51348C15 3.25406 14.6199 2.12005 13.8637 1.29244C13.1005 0.4572 12.0137 0 10.74 0C9.56622 0 8.32815 0.550669 7.49908 1.62541C6.66673 0.550108 5.42389 0 4.26 0ZM1.5 4.51348C1.5 3.55381 1.78672 2.80576 2.24175 2.3063C2.6895 1.81482 3.35733 1.5 4.26 1.5C5.15952 1.5 6.20082 2.0461 6.68953 3.18878L5.56572 5.69352C5.41022 6.0401 5.53839 6.44822 5.86413 6.64366L7.87455 7.84991L6.96873 11.1109C5.78199 10.4468 4.55292 9.65211 3.55667 8.69787C2.31606 7.50957 1.5 6.13705 1.5 4.51348ZM8.61855 10.776C9.6119 10.1862 10.6062 9.49607 11.4386 8.69541C12.6825 7.49903 13.5 6.12096 13.5 4.51348C13.5 3.55049 13.2118 2.80275 12.7563 2.30423C12.3078 1.81333 11.6397 1.5 10.74 1.5C9.76626 1.5 8.65161 2.12466 8.21533 3.44016C8.21024 3.45625 8.20457 3.47226 8.19831 3.48818C8.19307 3.50159 8.18746 3.51478 8.1815 3.52776L7.20687 5.70001L9.13587 6.85742C9.42512 7.03096 9.56292 7.37626 9.47264 7.70127L8.61855 10.776Z"/>
</svg>
